#N canvas 169 70 450 300 10;
#X obj 180 268 dac~;
#X obj 155 161 osc~ 300;
#X obj 152 42 loadbang;
#X obj 158 102 random 1000;
#X obj 158 126 + 200;
#X obj 187 230 *~ 0.2;
#X obj 164 74 metro 500;
#X connect 1 0 5 0;
#X connect 2 0 6 0;
#X connect 3 0 4 0;
#X connect 4 0 1 0;
#X connect 5 0 0 0;
#X connect 5 0 0 1;
#X connect 6 0 3 0;
