#N canvas -8 -8 1280 677 10;
#X obj 515 644 dac~;
#X obj 38 223 osc~;
#X floatatom 383 153 5 0 0 0 - - -, f 5;
#X obj 172 195 * 2;
#X obj 294 195 * 3;
#X obj 424 197 * 4;
#X obj 38 201 * 1;
#X obj 172 220 osc~;
#X obj 294 223 osc~;
#X obj 425 219 osc~;
#X obj 552 193 * 5;
#X obj 79 193 random 100;
#X obj 79 218 / 100;
#X obj 59 297 *~;
#X obj 211 195 random 100;
#X obj 211 222 / 100;
#X obj 183 303 *~;
#X obj 573 107 bng 15 250 50 0 empty empty empty 17 7 0 10 -262144
-1 -1;
#X obj 79 268 line~;
#X obj 206 272 line~;
#X obj 333 194 random 100;
#X obj 334 221 / 100;
#X obj 310 304 *~;
#X obj 340 279 line~;
#X obj 463 201 random 100;
#X obj 463 228 / 100;
#X obj 432 306 *~;
#X obj 469 286 line~;
#X obj 599 195 random 100;
#X obj 599 222 / 100;
#X obj 575 306 *~;
#X obj 605 280 line~;
#X obj 551 223 osc~;
#X obj 743 190 random 100;
#X obj 743 217 / 100;
#X obj 719 301 *~;
#X obj 749 275 line~;
#X obj 695 218 osc~;
#X obj 696 188 * 6;
#X obj 891 189 random 100;
#X obj 891 216 / 100;
#X obj 867 300 *~;
#X obj 897 274 line~;
#X obj 843 217 osc~;
#X obj 844 187 * 7;
#X obj 1028 186 random 100;
#X obj 1028 213 / 100;
#X obj 1004 297 *~;
#X obj 1034 271 line~;
#X obj 980 214 osc~;
#X obj 981 184 * 8;
#X msg 79 243 \$1 5000;
#X msg 211 249 \$1 5000;
#X msg 334 248 \$1 5000;
#X obj 567 72 metro 5000;
#X msg 463 255 \$1 5000;
#X msg 599 249 \$1 5000;
#X msg 743 244 \$1 5000;
#X msg 891 243 \$1 5000;
#X msg 1028 240 \$1 5000;
#X obj 529 410 +~;
#X obj 331 512 delread4~ left;
#X obj 551 569 delread4~ right;
#X obj 832 109 + 0.1;
#X obj 375 52 random 127;
#X obj 375 78 mtof;
#X msg 380 103 \$1 3000;
#X obj 379 129 line;
#X obj 571 32 loadbang;
#X obj 521 511 *~ 0.2;
#X obj 636 439 osc~ 0.5;
#X obj 859 446 tgl 15 0 empty empty empty 17 7 0 10 -262144 -1 -1 1
1;
#X obj 734 571 *~ 1;
#X obj 854 468 pink~;
#X floatatom 640 397 5 0 0 0 - - -, f 5;
#X obj 524 463 *~;
#X obj 818 531 hip~ 600;
#X obj 861 409 delwrite~ right 1000;
#X obj 321 444 delwrite~ left 1050;
#X connect 1 0 13 0;
#X connect 2 0 3 0;
#X connect 2 0 4 0;
#X connect 2 0 5 0;
#X connect 2 0 6 0;
#X connect 2 0 63 0;
#X connect 3 0 7 0;
#X connect 4 0 8 0;
#X connect 5 0 9 0;
#X connect 6 0 1 0;
#X connect 7 0 16 0;
#X connect 8 0 22 0;
#X connect 9 0 26 0;
#X connect 10 0 32 0;
#X connect 11 0 12 0;
#X connect 12 0 51 0;
#X connect 13 0 60 0;
#X connect 13 0 78 0;
#X connect 14 0 15 0;
#X connect 15 0 52 0;
#X connect 16 0 60 0;
#X connect 16 0 78 0;
#X connect 17 0 11 0;
#X connect 17 0 14 0;
#X connect 17 0 20 0;
#X connect 17 0 24 0;
#X connect 17 0 28 0;
#X connect 17 0 33 0;
#X connect 17 0 39 0;
#X connect 17 0 45 0;
#X connect 18 0 13 1;
#X connect 19 0 16 1;
#X connect 20 0 21 0;
#X connect 21 0 53 0;
#X connect 22 0 60 0;
#X connect 22 0 78 0;
#X connect 23 0 22 1;
#X connect 24 0 25 0;
#X connect 25 0 55 0;
#X connect 26 0 60 0;
#X connect 26 0 78 0;
#X connect 27 0 26 1;
#X connect 28 0 29 0;
#X connect 29 0 56 0;
#X connect 30 0 60 0;
#X connect 30 0 77 0;
#X connect 31 0 30 1;
#X connect 32 0 30 0;
#X connect 33 0 34 0;
#X connect 34 0 57 0;
#X connect 35 0 60 0;
#X connect 35 0 77 0;
#X connect 36 0 35 1;
#X connect 37 0 35 0;
#X connect 38 0 37 0;
#X connect 39 0 40 0;
#X connect 40 0 58 0;
#X connect 41 0 60 0;
#X connect 41 0 77 0;
#X connect 42 0 41 1;
#X connect 43 0 41 0;
#X connect 44 0 43 0;
#X connect 45 0 46 0;
#X connect 46 0 59 0;
#X connect 47 0 60 0;
#X connect 47 0 77 0;
#X connect 48 0 47 1;
#X connect 49 0 47 0;
#X connect 50 0 49 0;
#X connect 51 0 18 0;
#X connect 52 0 19 0;
#X connect 53 0 23 0;
#X connect 54 0 17 0;
#X connect 54 0 64 0;
#X connect 55 0 27 0;
#X connect 56 0 31 0;
#X connect 57 0 36 0;
#X connect 58 0 42 0;
#X connect 59 0 48 0;
#X connect 60 0 75 0;
#X connect 61 0 0 0;
#X connect 62 0 0 1;
#X connect 63 0 10 0;
#X connect 63 0 38 0;
#X connect 63 0 44 0;
#X connect 63 0 50 0;
#X connect 64 0 65 0;
#X connect 65 0 66 0;
#X connect 66 0 67 0;
#X connect 67 0 2 0;
#X connect 68 0 54 0;
#X connect 68 0 71 0;
#X connect 69 0 0 0;
#X connect 69 0 0 1;
#X connect 70 0 75 1;
#X connect 71 0 73 0;
#X connect 71 0 70 0;
#X connect 72 0 75 0;
#X connect 73 0 76 0;
#X connect 74 0 70 0;
#X connect 75 0 69 0;
#X connect 76 0 72 0;
