#N canvas 781 296 735 454 10;
#X obj 282 386 dac~;
#X obj 43 226 osc~ 300;
#X obj 185 8 loadbang;
#X obj 38 79 random 1000;
#X obj 38 103 + 200;
#X obj 44 51 metro 500;
#X obj 257 136 phasor~;
#X obj 248 79 random 1000;
#X obj 248 103 + 200;
#X obj 254 51 metro 500;
#X obj 148 13 tgl 15 0 empty empty empty 17 7 0 10 -262144 -1 -1 1
1;
#X floatatom 323 111 5 0 0 0 - - -;
#X obj 289 348 *~ 0.1;
#X obj 156 137 sig~ 1;
#X obj 230 268 *~ 1;
#X obj 41 164 line~;
#X msg 40 137 s1 500;
#X connect 1 0 14 0;
#X connect 2 0 5 0;
#X connect 2 0 9 0;
#X connect 2 0 13 0;
#X connect 3 0 4 0;
#X connect 4 0 16 0;
#X connect 5 0 3 0;
#X connect 6 0 14 0;
#X connect 7 0 8 0;
#X connect 8 0 6 0;
#X connect 9 0 7 0;
#X connect 10 0 5 0;
#X connect 10 0 9 0;
#X connect 11 0 6 1;
#X connect 11 0 14 1;
#X connect 12 0 0 0;
#X connect 12 0 0 1;
#X connect 14 0 12 0;
#X connect 15 0 1 0;
#X connect 16 0 15 0;
