#N canvas 2445 260 735 454 10;
#X obj 282 386 dac~;
#X obj 39 135 osc~ 300;
#X obj 185 8 loadbang;
#X obj 38 79 random 1000;
#X obj 38 103 + 200;
#X obj 289 348 *~ 0.2;
#X obj 44 51 metro 500;
#X obj 257 136 phasor~;
#X obj 248 79 random 1000;
#X obj 248 103 + 200;
#X obj 254 51 metro 500;
#X obj 148 13 tgl 15 0 empty empty empty 17 7 0 10 -262144 -1 -1 0
1;
#X obj 230 268 *~ 1;
#X floatatom 323 111 5 0 0 0 - - -;
#X connect 1 0 12 0;
#X connect 2 0 6 0;
#X connect 2 0 10 0;
#X connect 3 0 4 0;
#X connect 4 0 1 0;
#X connect 5 0 0 0;
#X connect 5 0 0 1;
#X connect 6 0 3 0;
#X connect 7 0 12 0;
#X connect 8 0 9 0;
#X connect 9 0 7 0;
#X connect 10 0 8 0;
#X connect 11 0 6 0;
#X connect 11 0 10 0;
#X connect 12 0 5 0;
#X connect 13 0 7 1;
