#N canvas 2110 56 959 989 12;
#X obj 480 747 *~ 1;
#X obj 480 795 *~ 0.1;
#X obj 479 852 dac~;
#X obj 389 597 mtof;
#X obj 433 598 mtof;
#X obj 480 595 mtof;
#X obj 440 558 + 7;
#X obj 362 675 osc~;
#X obj 453 675 osc~;
#X obj 438 505 + 35;
#X obj 417 116 loadbang;
#X obj 243 405 metro 1000;
#X obj 437 476 random 50;
#X obj 423 158 metro 6000;
#X obj 344 404 metro 250;
#X obj 533 407 metro 550;
#X msg 252 337 0;
#X msg 358 334 0;
#X msg 419 333 0;
#X msg 490 337 0;
#X obj 412 270 select 0 1 2 3 4;
#X obj 424 209 random 5;
#X obj 629 408 metro 75;
#X msg 591 333 0;
#X obj 435 403 metro 3000;
#X obj 528 672 phasor~;
#X obj 532 486 random 7;
#X obj 619 474 random 4;
#X obj 483 559 + 4;
#X connect 0 0 1 0;
#X connect 1 0 2 0;
#X connect 1 0 2 1;
#X connect 3 0 7 0;
#X connect 4 0 8 0;
#X connect 5 0 25 0;
#X connect 6 0 4 0;
#X connect 7 0 0 0;
#X connect 8 0 0 0;
#X connect 9 0 3 0;
#X connect 9 0 6 0;
#X connect 9 0 28 0;
#X connect 10 0 13 0;
#X connect 11 0 12 0;
#X connect 11 0 26 0;
#X connect 11 0 27 0;
#X connect 12 0 9 0;
#X connect 13 0 21 0;
#X connect 14 0 12 0;
#X connect 14 0 26 0;
#X connect 14 0 27 0;
#X connect 15 0 12 0;
#X connect 15 0 26 0;
#X connect 15 0 27 0;
#X connect 16 0 14 0;
#X connect 16 0 15 0;
#X connect 16 0 22 0;
#X connect 16 0 24 0;
#X connect 17 0 11 0;
#X connect 17 0 15 0;
#X connect 17 0 22 0;
#X connect 17 0 24 0;
#X connect 18 0 11 0;
#X connect 18 0 14 0;
#X connect 18 0 15 0;
#X connect 18 0 22 0;
#X connect 19 0 14 0;
#X connect 19 0 11 0;
#X connect 19 0 22 0;
#X connect 19 0 24 0;
#X connect 20 0 11 0;
#X connect 20 0 16 0;
#X connect 20 1 14 0;
#X connect 20 1 17 0;
#X connect 20 2 18 0;
#X connect 20 2 24 0;
#X connect 20 3 15 0;
#X connect 20 3 19 0;
#X connect 20 4 22 0;
#X connect 20 4 23 0;
#X connect 21 0 20 0;
#X connect 22 0 12 0;
#X connect 22 0 27 0;
#X connect 22 0 26 0;
#X connect 23 0 15 0;
#X connect 23 0 14 0;
#X connect 23 0 11 0;
#X connect 23 0 24 0;
#X connect 24 0 12 0;
#X connect 24 0 26 0;
#X connect 24 0 27 0;
#X connect 25 0 0 0;
#X connect 26 0 6 1;
#X connect 27 0 28 1;
#X connect 28 0 5 0;
